<svg xmlns="http://www.w3.org/2000/svg" xmlns:xlink="http://www.w3.org/1999/xlink" width="42" height="42" id="money"><defs><linearGradient id="b" x1="906.952" x2="931.379" y1="515.915" y2="546.094" gradientTransform="translate(-1215.129 316.47) scale(1.34562)" gradientUnits="userSpaceOnUse" xlink:href="#a"></linearGradient><linearGradient id="a"><stop offset="0" stop-color="#ffd800"></stop><stop offset="1" stop-color="#ff6100"></stop></linearGradient></defs><g transform="translate(0 -1010.362)"><rect width="42" height="42" y="1010.362" fill="url(#b)" rx="8.876" ry="8.876"></rect><path style="line-height:normal;text-indent:0;text-align:start;text-decoration-line:none;text-decoration-style:solid;text-decoration-color:#000;text-transform:none;block-progression:tb;isolation:auto;mix-blend-mode:normal" fill="#fff" fill-rule="evenodd" d="M24.017 1019.362a.5.5 0 0 0-.5.5v.692a4.578 4.578 0 0 0-.645.263l-.486-.486a.5.5 0 0 0-.707 0l-1.285 1.287a.5.5 0 0 0 0 .707l.486.486a4.567 4.567 0 0 0-.266.643h-.689a.5.5 0 0 0-.5.5v1.818a.5.5 0 0 0 .5.5h.69c.072.223.16.436.265.645l-.486.484a.5.5 0 0 0 0 .707l1.285 1.287a.5.5 0 0 0 .707 0l.488-.488c.208.105.421.195.643.268v.687a.5.5 0 0 0 .5.5h1.818a.5.5 0 0 0 .5-.5v-.69c.221-.071.435-.158.643-.263l.486.486a.5.5 0 0 0 .707 0l1.285-1.287a.5.5 0 0 0 0-.707l-.486-.486c.105-.208.195-.421.268-.643h.687a.5.5 0 0 0 .5-.5v-1.818a.5.5 0 0 0-.5-.5h-.69a4.568 4.568 0 0 0-.263-.644l.484-.485a.5.5 0 0 0 0-.707l-1.285-1.287a.5.5 0 0 0-.707 0l-.486.488a4.557 4.557 0 0 0-.643-.267v-.69a.5.5 0 0 0-.5-.5h-1.818zm-11.578.996v.01a.5.5 0 0 0-.36.16c-.746.198-1.346.788-1.334 1.592l-.002-.012v.737c-2.396.676-4.271 2.668-4.271 5.216 0 3.14 2.797 5.52 5.994 5.52 1.558 0 2.55 1.022 2.55 2.078 0 1.057-.99 2.072-2.55 2.072-1.56 0-2.55-1.015-2.55-2.072.004-.534-.21-1-.542-1.297-.333-.3-.76-.437-1.18-.437-.42 0-.847.137-1.181.437-.333.3-.548.769-.541 1.307.003 2.607 1.916 4.524 4.271 5.213v.744l.002-.01c-.007.539.208 1.009.541 1.308.334.3.76.438 1.18.438.42 0 .848-.138 1.182-.438.333-.3.548-.77.54-1.308v-.742c2.398-.676 4.274-2.667 4.274-5.215 0-3.14-2.799-5.522-5.996-5.522-1.558 0-2.55-1.02-2.55-2.076 0-1.042.968-2.036 2.493-2.064h.12c1.523.03 2.488 1.018 2.488 2.058-.005.535.21 1.001.54 1.3.335.299.762.437 1.182.437.42 0 .848-.138 1.182-.438.333-.3.546-.77.54-1.307-.004-2.607-1.917-4.526-4.272-5.214v-.723a1.73 1.73 0 0 0-1.75-1.748zm12.078 0h.818v.516a.5.5 0 0 0 .389.488c.394.09.77.244 1.111.46a.5.5 0 0 0 .62-.069l.363-.365.578.58-.362.361a.5.5 0 0 0-.07.618c.214.342.369.719.457 1.113a.5.5 0 0 0 .486.39h.518v.819h-.516a.5.5 0 0 0-.486.389c-.09.393-.246.769-.46 1.11a.5.5 0 0 0 .07.62l.363.363-.578.578-.362-.36a.5.5 0 0 0-.619-.07 3.582 3.582 0 0 1-1.111.456.5.5 0 0 0-.39.488v.516h-.82v-.516a.5.5 0 0 0-.388-.486 3.6 3.6 0 0 1-1.111-.46.5.5 0 0 0-.62.07l-.365.364-.578-.58.364-.361a.5.5 0 0 0 .07-.62 3.583 3.583 0 0 1-.457-1.11.5.5 0 0 0-.488-.391h-.518v-.818h.516a.5.5 0 0 0 .488-.39c.09-.393.244-.768.459-1.11a.5.5 0 0 0-.068-.62l-.366-.363.578-.58.364.363a.5.5 0 0 0 .617.068c.343-.213.72-.366 1.113-.455a.5.5 0 0 0 .39-.49v-.516zm-12.063 1.006a.5.5 0 0 0 .006 0c.41 0 .735.318.729.729a.5.5 0 0 0 0 .01v1.068a.5.5 0 0 0 .39.488c2.171.488 3.883 2.145 3.883 4.395a.5.5 0 0 0 0 .01c.004.287-.085.435-.21.549a.776.776 0 0 1-.512.181.78.78 0 0 1-.514-.181c-.126-.113-.213-.262-.21-.55a.5.5 0 0 0 0-.01c0-1.651-1.504-3.02-3.468-3.058a.5.5 0 0 0-.039 0h-.08a.5.5 0 0 0-.04 0c-1.967.036-3.474 1.411-3.474 3.065 0 1.674 1.54 3.076 3.551 3.076 2.705 0 4.996 1.979 4.996 4.521 0 2.182-1.682 3.926-3.877 4.387a.5.5 0 0 0-.396.49v1.088a.5.5 0 0 0 0 .01c.004.288-.083.436-.21.55a.782.782 0 0 1-.513.18.775.775 0 0 1-.512-.18c-.126-.114-.215-.262-.21-.55a.5.5 0 0 0 0-.01v-1.084a.5.5 0 0 0-.39-.486c-2.17-.488-3.882-2.144-3.882-4.395a.5.5 0 0 0 0-.01c-.004-.287.083-.437.209-.55a.782.782 0 0 1 .514-.182c.197 0 .385.068.511.182.126.113.214.263.21.55a.5.5 0 0 0 0 .01c0 1.675 1.54 3.073 3.55 3.073s3.55-1.398 3.55-3.073c0-1.674-1.539-3.078-3.55-3.078-2.705 0-4.994-1.977-4.994-4.52 0-2.181 1.68-3.927 3.875-4.388a.5.5 0 0 0 .396-.49v-1.074a.5.5 0 0 0 0-.01.714.714 0 0 1 .711-.733zm12.471 1.606a1.897 1.897 0 0 0-1.889 1.888c0 1.037.852 1.89 1.889 1.89a1.899 1.899 0 0 0 1.889-1.89 1.897 1.897 0 0 0-1.889-1.888zm0 1a.89.89 0 1 1-.001 1.778.89.89 0 0 1 .001-1.778zm-5.789 5.388a2.542 2.542 0 0 1-.549.739 2.194 2.194 0 0 1-.363.261h.883v.82a.5.5 0 0 0 .388.489c.529.12 1.034.33 1.493.617a.5.5 0 0 0 .619-.07l.578-.578.965.963-.577.578a.5.5 0 0 0-.072.617c.287.46.495.966.613 1.494a.5.5 0 0 0 .489.389h.822v1.365h-.82a.5.5 0 0 0-.489.389 4.81 4.81 0 0 1-.615 1.49.5.5 0 0 0 .069.62l.58.58-.965.962-.576-.576a.5.5 0 0 0-.62-.07c-.46.287-.963.494-1.492.613a.5.5 0 0 0-.39.487v.822h-1.364v-.82a.5.5 0 0 0-.388-.487 4.849 4.849 0 0 1-.813-.267 7.668 7.668 0 0 1-1.353.726v.09c.002.14-.02.275-.037.41l.568-.568c.328.174.669.315 1.023.424v.992a.5.5 0 0 0 .5.5h2.364a.5.5 0 0 0 .5-.5v-.994a5.793 5.793 0 0 0 1.025-.42l.7.7a.5.5 0 0 0 .706 0l1.672-1.67a.5.5 0 0 0 0-.708l-.703-.703c.174-.327.315-.667.424-1.021h.994a.5.5 0 0 0 .5-.5v-2.366a.5.5 0 0 0-.5-.5h-.994a5.791 5.791 0 0 0-.42-1.023l.7-.701a.5.5 0 0 0 0-.707l-1.673-1.67a.5.5 0 0 0-.707 0l-.7.701a5.792 5.792 0 0 0-1.024-.424v-.994a.5.5 0 0 0-.5-.5h-.471zm11.514 1a.5.5 0 0 0-.135.018l-1.404.377a.5.5 0 0 0-.354.612l.125.468c-.117.08-.229.165-.336.258l-.42-.242a.5.5 0 0 0-.681.182l-.729 1.26a.5.5 0 0 0 .184.683l.42.242a3.757 3.757 0 0 0-.055.42l-.469.125a.5.5 0 0 0-.353.611l.377 1.407a.5.5 0 0 0 .61.353l.47-.125c.079.116.164.227.256.334l-.243.42a.5.5 0 0 0 .184.684l1.26.726a.5.5 0 0 0 .683-.181l.242-.422c.14.027.279.046.42.057l.125.467a.5.5 0 0 0 .612.353l1.406-.375a.5.5 0 0 0 .353-.613l-.126-.469c.116-.079.227-.166.334-.258l.421.244a.5.5 0 0 0 .684-.183l.727-1.26a.5.5 0 0 0-.184-.684l-.42-.242c.027-.138.044-.277.055-.418l.468-.125a.5.5 0 0 0 .354-.613l-.375-1.404a.5.5 0 0 0-.613-.354l-.469.125a3.742 3.742 0 0 0-.258-.334l.244-.422a.5.5 0 0 0-.183-.681l-1.26-.729a.5.5 0 0 0-.684.184l-.242.42a3.674 3.674 0 0 0-.418-.055l-.125-.47a.5.5 0 0 0-.478-.37zm-.36 1.112.08.299a.5.5 0 0 0 .5.37c.312-.01.625.03.922.124a.5.5 0 0 0 .58-.227l.159-.271.392.226-.156.272a.5.5 0 0 0 .094.615c.228.212.42.46.566.736a.5.5 0 0 0 .57.25l.301-.08.12.438-.302.08a.5.5 0 0 0-.369.5c.011.311-.032.624-.125.922a.5.5 0 0 0 .229.582l.271.156-.228.394-.27-.156a.5.5 0 0 0-.617.092c-.212.229-.46.42-.736.567a.5.5 0 0 0-.25.57l.082.303-.44.117-.08-.3a.5.5 0 0 0-.5-.37 2.757 2.757 0 0 1-.92-.125.5.5 0 0 0-.582.228l-.158.272-.392-.227.156-.271a.5.5 0 0 0-.094-.617 2.657 2.657 0 0 1-.564-.731.5.5 0 0 0-.573-.248l-.3.08-.118-.441.3-.078a.5.5 0 0 0 .37-.5 2.77 2.77 0 0 1 .123-.92.5.5 0 0 0-.226-.583l-.272-.156.227-.394.27.156a.5.5 0 0 0 .617-.096c.211-.229.46-.419.736-.564a.5.5 0 0 0 .25-.573l-.08-.3.437-.118zm.576 1.834c-.103.01-.204.026-.304.053-.4.107-.76.365-.98.748a1.62 1.62 0 0 0 .59 2.2 1.62 1.62 0 0 0 2.2-.589 1.62 1.62 0 0 0-.59-2.201 1.598 1.598 0 0 0-.916-.211zm-11.716.496c.132.393.228.801.273 1.23.403.305.668.783.668 1.324 0 .72-.463 1.328-1.103 1.56-.166.391-.368.76-.61 1.105h.047a2.679 2.679 0 0 0 2.666-2.668c0-1.212-.828-2.235-1.941-2.555zm11.902.504a.61.61 0 1 1-.147 1.214.61.61 0 0 1 .147-1.214z" color="#000" font-family="sans-serif" font-weight="400" overflow="visible"></path></g></svg>